<?xml version="1.0" standalone="no"?><svg xmlns="http://www.w3.org/2000/svg" viewBox="0 0 1440 320"><path fill="#2c2891" fill-opacity="1" d="M0,192L24,186.7C48,181,96,171,144,170.7C192,171,240,181,288,170.7C336,160,384,128,432,133.3C480,139,528,181,576,202.7C624,224,672,224,720,213.3C768,203,816,181,864,181.3C912,181,960,203,1008,202.7C1056,203,1104,181,1152,192C1200,203,1248,245,1296,256C1344,267,1392,245,1416,234.7L1440,224L1440,320L1416,320C1392,320,1344,320,1296,320C1248,320,1200,320,1152,320C1104,320,1056,320,1008,320C960,320,912,320,864,320C816,320,768,320,720,320C672,320,624,320,576,320C528,320,480,320,432,320C384,320,336,320,288,320C240,320,192,320,144,320C96,320,48,320,24,320L0,320Z"></path></svg>