<?xml version="1.0" standalone="no"?>
<svg xmlns:xlink="http://www.w3.org/1999/xlink" id="wave" style="transform:rotate(0deg); transition: 0.3s" viewBox="0 0 1440 490" version="1.1" xmlns="http://www.w3.org/2000/svg"><defs><linearGradient id="sw-gradient-0" x1="0" x2="0" y1="1" y2="0"><stop stop-color="rgba(21, 151, 229, 1)" offset="0%"/><stop stop-color="rgba(17, 60, 252, 1)" offset="100%"/></linearGradient></defs><path style="transform:translate(0, 0px); opacity:1" fill="url(#sw-gradient-0)" d="M0,245L48,220.5C96,196,192,147,288,130.7C384,114,480,131,576,114.3C672,98,768,49,864,89.8C960,131,1056,261,1152,269.5C1248,278,1344,163,1440,155.2C1536,147,1632,245,1728,294C1824,343,1920,343,2016,351.2C2112,359,2208,376,2304,359.3C2400,343,2496,294,2592,236.8C2688,180,2784,114,2880,130.7C2976,147,3072,245,3168,253.2C3264,261,3360,180,3456,171.5C3552,163,3648,229,3744,285.8C3840,343,3936,392,4032,343C4128,294,4224,147,4320,138.8C4416,131,4512,261,4608,334.8C4704,408,4800,425,4896,383.8C4992,343,5088,245,5184,212.3C5280,180,5376,212,5472,220.5C5568,229,5664,212,5760,204.2C5856,196,5952,196,6048,179.7C6144,163,6240,131,6336,106.2C6432,82,6528,65,6624,114.3C6720,163,6816,278,6864,334.8L6912,392L6912,490L6864,490C6816,490,6720,490,6624,490C6528,490,6432,490,6336,490C6240,490,6144,490,6048,490C5952,490,5856,490,5760,490C5664,490,5568,490,5472,490C5376,490,5280,490,5184,490C5088,490,4992,490,4896,490C4800,490,4704,490,4608,490C4512,490,4416,490,4320,490C4224,490,4128,490,4032,490C3936,490,3840,490,3744,490C3648,490,3552,490,3456,490C3360,490,3264,490,3168,490C3072,490,2976,490,2880,490C2784,490,2688,490,2592,490C2496,490,2400,490,2304,490C2208,490,2112,490,2016,490C1920,490,1824,490,1728,490C1632,490,1536,490,1440,490C1344,490,1248,490,1152,490C1056,490,960,490,864,490C768,490,672,490,576,490C480,490,384,490,288,490C192,490,96,490,48,490L0,490Z"/><defs><linearGradient id="sw-gradient-1" x1="0" x2="0" y1="1" y2="0"><stop stop-color="rgba(21, 151, 229, 1)" offset="0%"/><stop stop-color="rgba(105, 218, 219, 1)" offset="100%"/></linearGradient></defs><path style="transform:translate(0, 50px); opacity:0.9" fill="url(#sw-gradient-1)" d="M0,147L48,163.3C96,180,192,212,288,245C384,278,480,310,576,343C672,376,768,408,864,392C960,376,1056,310,1152,269.5C1248,229,1344,212,1440,187.8C1536,163,1632,131,1728,163.3C1824,196,1920,294,2016,351.2C2112,408,2208,425,2304,432.8C2400,441,2496,441,2592,392C2688,343,2784,245,2880,212.3C2976,180,3072,212,3168,212.3C3264,212,3360,180,3456,179.7C3552,180,3648,212,3744,212.3C3840,212,3936,180,4032,138.8C4128,98,4224,49,4320,32.7C4416,16,4512,33,4608,73.5C4704,114,4800,180,4896,236.8C4992,294,5088,343,5184,375.7C5280,408,5376,425,5472,424.7C5568,425,5664,408,5760,375.7C5856,343,5952,294,6048,245C6144,196,6240,147,6336,147C6432,147,6528,196,6624,228.7C6720,261,6816,278,6864,285.8L6912,294L6912,490L6864,490C6816,490,6720,490,6624,490C6528,490,6432,490,6336,490C6240,490,6144,490,6048,490C5952,490,5856,490,5760,490C5664,490,5568,490,5472,490C5376,490,5280,490,5184,490C5088,490,4992,490,4896,490C4800,490,4704,490,4608,490C4512,490,4416,490,4320,490C4224,490,4128,490,4032,490C3936,490,3840,490,3744,490C3648,490,3552,490,3456,490C3360,490,3264,490,3168,490C3072,490,2976,490,2880,490C2784,490,2688,490,2592,490C2496,490,2400,490,2304,490C2208,490,2112,490,2016,490C1920,490,1824,490,1728,490C1632,490,1536,490,1440,490C1344,490,1248,490,1152,490C1056,490,960,490,864,490C768,490,672,490,576,490C480,490,384,490,288,490C192,490,96,490,48,490L0,490Z"/></svg>