<?xml version="1.0" standalone="no"?>
<svg xmlns:xlink="http://www.w3.org/1999/xlink" id="wave" style="transform:rotate(0deg); transition: 0.3s" viewBox="0 0 1440 490" version="1.1" xmlns="http://www.w3.org/2000/svg"><defs><linearGradient id="sw-gradient-0" x1="0" x2="0" y1="1" y2="0"><stop stop-color="rgba(21, 151, 229, 1)" offset="0%"/><stop stop-color="rgba(17, 60, 252, 1)" offset="100%"/></linearGradient></defs><path style="transform:translate(0, 0px); opacity:1" fill="url(#sw-gradient-0)" d="M0,392L48,375.7C96,359,192,327,288,318.5C384,310,480,327,576,318.5C672,310,768,278,864,236.8C960,196,1056,147,1152,114.3C1248,82,1344,65,1440,122.5C1536,180,1632,310,1728,334.8C1824,359,1920,278,2016,269.5C2112,261,2208,327,2304,367.5C2400,408,2496,425,2592,383.8C2688,343,2784,245,2880,196C2976,147,3072,147,3168,163.3C3264,180,3360,212,3456,220.5C3552,229,3648,212,3744,187.8C3840,163,3936,131,4032,155.2C4128,180,4224,261,4320,318.5C4416,376,4512,408,4608,400.2C4704,392,4800,343,4896,294C4992,245,5088,196,5184,147C5280,98,5376,49,5472,32.7C5568,16,5664,33,5760,98C5856,163,5952,278,6048,310.3C6144,343,6240,294,6336,285.8C6432,278,6528,310,6624,334.8C6720,359,6816,376,6864,383.8L6912,392L6912,490L6864,490C6816,490,6720,490,6624,490C6528,490,6432,490,6336,490C6240,490,6144,490,6048,490C5952,490,5856,490,5760,490C5664,490,5568,490,5472,490C5376,490,5280,490,5184,490C5088,490,4992,490,4896,490C4800,490,4704,490,4608,490C4512,490,4416,490,4320,490C4224,490,4128,490,4032,490C3936,490,3840,490,3744,490C3648,490,3552,490,3456,490C3360,490,3264,490,3168,490C3072,490,2976,490,2880,490C2784,490,2688,490,2592,490C2496,490,2400,490,2304,490C2208,490,2112,490,2016,490C1920,490,1824,490,1728,490C1632,490,1536,490,1440,490C1344,490,1248,490,1152,490C1056,490,960,490,864,490C768,490,672,490,576,490C480,490,384,490,288,490C192,490,96,490,48,490L0,490Z"/></svg>