<?xml version="1.0" standalone="no"?><svg xmlns="http://www.w3.org/2000/svg" viewBox="0 0 1440 320"><path fill="#F2F4F8" fill-opacity="1" d="M0,192L30,170.7C60,149,120,107,180,96C240,85,300,107,360,128C420,149,480,171,540,181.3C600,192,660,192,720,165.3C780,139,840,85,900,90.7C960,96,1020,160,1080,202.7C1140,245,1200,267,1260,256C1320,245,1380,203,1410,181.3L1440,160L1440,320L1410,320C1380,320,1320,320,1260,320C1200,320,1140,320,1080,320C1020,320,960,320,900,320C840,320,780,320,720,320C660,320,600,320,540,320C480,320,420,320,360,320C300,320,240,320,180,320C120,320,60,320,30,320L0,320Z"></path></svg>