<?xml version="1.0" standalone="no"?>
<svg viewBox="0 0 200 200" xmlns="http://www.w3.org/2000/svg">
  <path fill="#7E30E4" d="M36.1,-66.2C45.4,-57.2,50.6,-44.7,56.7,-33.1C62.7,-21.5,69.5,-10.7,69.3,-0.1C69.1,10.5,61.8,21,56.8,34.4C51.8,47.7,49,64,40,73.8C30.9,83.7,15.4,87.2,2,83.7C-11.3,80.1,-22.7,69.5,-35.5,61.8C-48.3,54,-62.5,49.2,-67.7,39.4C-72.9,29.5,-69,14.8,-68.6,0.3C-68.2,-14.3,-71.1,-28.5,-67,-40.3C-63,-52,-51.8,-61.2,-39.5,-68.4C-27.1,-75.6,-13.6,-80.8,-0.1,-80.7C13.4,-80.5,26.8,-75.1,36.1,-66.2Z" transform="translate(100 100)" />
</svg>
