<?xml version="1.0"?>
<svg xmlns="http://www.w3.org/2000/svg" xmlns:xlink="http://www.w3.org/1999/xlink" xmlns:svgjs="http://svgjs.com/svgjs" version="1.1" width="512" height="512" x="0" y="0" viewBox="0 0 512 512" style="enable-background:new 0 0 512 512" xml:space="preserve" class=""><g><g xmlns="http://www.w3.org/2000/svg"><path d="m288.859 133.979c7.179 0 11.939-7.346 9.24-13.819-1.79-4.371-6.504-6.924-11.189-5.98-4.808.975-8.051 5.154-8.051 9.8 0 5.349 4.326 9.999 10 9.999z" fill="#791fe2" data-original="#000000" style="" class=""/><path d="m256 288.27c49.977 0 90.635-40.658 90.635-90.635 0-20.43-6.996-40.467-19.698-56.42-3.439-4.321-9.732-5.037-14.052-1.595-4.321 3.44-5.035 9.731-1.595 14.052 10.039 12.608 15.345 27.81 15.345 43.963 0 38.948-31.687 70.635-70.635 70.635s-70.634-31.687-70.634-70.635c0-37.542 29.334-68.523 66.781-70.532 2.068-.111 3.956-.843 5.492-2.005 7.824-5.919 3.271-18.482-6.563-17.966-48.062 2.578-85.71 42.331-85.71 90.503-.001 49.976 40.658 90.635 90.634 90.635z" fill="#791fe2" data-original="#000000" style="" class=""/><path d="m466.726 69.65h-60.086c-3.065-4.503-4.976-5.618-17.601-18.474-13.5-13.498-35.467-13.498-48.967 0l-15.285 15.286c-7.91-4.157-16.165-7.581-24.677-10.234v-21.603c.001-19.092-15.531-34.625-34.624-34.625h-18.973c-19.092 0-34.625 15.533-34.625 34.625v21.604c-8.51 2.653-16.767 6.078-24.676 10.235l-15.286-15.287c-13.5-13.5-35.466-13.5-48.967 0-12.414 12.642-14.53 13.963-17.599 18.474h-60.086c-24.358 0-44.175 19.816-44.175 44.175v234.428c0 24.288 19.747 44.175 44.174 44.175h173.272l-13.112 47.073h-30.053c-18.064 0-32.76 14.696-32.76 32.761v19.737h-36.708c-5.523 0-10 4.478-10 10s4.477 10 10 10h300.176c5.522 0 10-4.478 10-10s-4.478-10-10-10h-36.708v-19.738c0-18.064-14.696-32.761-32.76-32.761h-30.054l-13.112-47.073h173.273c24.358 0 44.175-19.816 44.175-44.175 0-12.436 0-226.179 0-234.428-.001-24.358-19.817-44.175-44.176-44.175zm0 20c13.33 0 24.175 10.845 24.175 24.175v190.585h-78.414c-.445-8.416-3.909-16.58-10.03-22.702l-15.286-15.285c4.158-7.91 7.582-16.165 10.235-24.677 21.851-.055 22.09.132 25.139-.179 17.438-1.776 31.09-16.546 31.09-34.446v-18.973c0-19.093-15.532-34.625-34.625-34.625h-21.604c-2.653-8.512-6.078-16.767-10.235-24.677l15.286-15.285c6.631-6.631 10.018-15.314 10.151-23.911zm-343.041-10.914 13.416-13.417c5.703-5.702 14.981-5.702 20.683 0l20.635 20.636c3.235 3.232 8.252 3.86 12.185 1.522 10.548-6.276 21.902-10.985 33.748-13.997 4.433-1.126 7.537-5.117 7.537-9.691v-29.164c0-8.064 6.561-14.625 14.625-14.625h18.973c8.064 0 14.625 6.561 14.625 14.625v29.164c0 4.574 3.104 8.565 7.537 9.691 11.846 3.011 23.2 7.721 33.748 13.997 3.93 2.339 8.948 1.712 12.185-1.522l20.634-20.636c5.702-5.7 14.981-5.702 20.684 0 13.489 13.937 16.25 14.629 17.453 21.109.883 4.85-.698 9.649-4.037 12.99l-20.635 20.635c-3.235 3.235-3.862 8.253-1.522 12.186 5.492 9.229 9.784 19.075 12.788 29.329.429 1.465.832 2.938 1.209 4.419 1.126 4.433 5.117 7.536 9.691 7.536h29.164c8.064 0 14.625 6.561 14.625 14.625v18.973c0 8.064-6.561 14.625-14.625 14.625h-29.164c-4.574 0-8.565 3.104-9.691 7.537-3.011 11.846-7.721 23.2-13.997 33.748-.146.246-.281.496-.404.749-1.847 3.803-1.107 8.402 1.927 11.436 18.342 19.53 23.833 20.947 24.812 29.194h-272.986c.377-3.177 1.804-6.188 4.176-8.56l20.635-20.635c3.235-3.235 3.862-8.253 1.523-12.185-6.278-10.55-10.987-21.904-13.996-33.748-1.126-4.434-5.118-7.537-9.692-7.537h-29.164c-8.064 0-14.625-6.561-14.625-14.625v-18.973c0-8.064 6.561-14.625 14.625-14.625h29.165c4.574 0 8.565-3.104 9.692-7.537 3.011-11.847 7.719-23.2 13.996-33.747 2.33-3.916 1.727-8.936-1.523-12.186-20.23-20.473-20.9-20.459-22.566-23.027-3.718-5.718-2.977-13.383 1.931-18.289zm-78.411 10.914h54.118c.136 8.704 3.604 17.364 10.151 23.911l15.286 15.285c-4.157 7.91-7.582 16.167-10.235 24.677h-21.604c-19.092 0-34.625 15.532-34.625 34.625v18.973c0 19.112 15.552 34.625 34.625 34.625h21.604c2.653 8.51 6.077 16.767 10.235 24.677l-15.286 15.285c-6.122 6.122-9.585 14.286-10.03 22.702h-78.414v-190.585c0-13.33 10.845-24.175 24.175-24.175zm304.106 382.612v19.738h-186.76v-19.738c0-7.036 5.724-12.761 12.76-12.761h161.24c7.036 0 12.76 5.725 12.76 12.761zm-63.575-32.761h-59.611l13.112-47.073h33.386zm205.096-91.248c0 13.33-10.845 24.175-24.175 24.175-14.926 0-407.527 0-421.453 0-13.369 0-24.175-10.882-24.175-24.175v-23.843h469.802v23.843z" fill="#791fe2" data-original="#000000" style="" class=""/></g></g></svg>
